<svg version="1.0" xmlns="http://www.w3.org/2000/svg" width="121pt" height="98pt" viewBox="0 0 121 98"><path d="M13.223 1.557C11.517 2.751 11 4.105 11 7.374v4.261l-5.25.933c-5.1.905-5.259 1.035-5.551 4.518-.185 2.206.249 4.041 1.128 4.77.808.671 10.645 2.025 22.673 3.121 11.685 1.064 21.454 2.143 21.708 2.398 1.53 1.53-6.252 3.034-22.028 4.258-9.905.768-18.611 1.895-19.345 2.504-1.791 1.486-1.697 6.318.152 7.853.856.71 9.246 1.968 19.75 2.963 17.994 1.703 18.211 1.751 14.763 3.29-2.13.951-8.294 1.846-15.75 2.288L11 51.257v13.8c0 15.216.349 16.202 6.198 17.486 2.078.457 3.352.308 3.594-.419 4.067-12.201 15.338-18.637 25.706-14.678 5.064 1.934 11.056 8.246 12.028 12.671.627 2.856.701 2.883 7.928 2.883 7.285 0 7.297-.004 7.888-2.961.848-4.24 7.044-10.639 12.212-12.613 8.763-3.346 18.514.926 22.989 10.073 2.981 6.092 4.624 6.731 8.822 3.428C121 78.855 121 78.854 121 64.038c0-15.954-1.454-26.148-5.37-37.648-3.056-8.974-9.142-20.993-12.156-24.007L101.091 0H58.268C21.128 0 15.15.207 13.223 1.557m83.599 16.34C98.741 21.312 104 34.225 104 35.523c0 .262-5.175.477-11.5.477H81V14h13.632l2.19 3.897" fill="#000000FF" stroke="#000000FF"/><path d="M84.873 72.684C81.041 75.062 79 79.168 79 84.5 79 92.985 84.015 98 92.5 98S106 92.985 106 84.5c0-8.563-5.024-13.521-13.654-13.473-2.695.014-6.012.75-7.473 1.657m-53 0C28.041 75.062 26 79.168 26 84.5 26 92.985 31.015 98 39.5 98c5.419 0 9.534-2.095 11.864-6.04 2.102-3.557 2.102-11.363 0-14.92-.899-1.523-2.881-3.505-4.404-4.404-3.553-2.1-11.669-2.074-15.087.048" fill="#000000FF" stroke="#000000FF"/></svg>